<?xml version="1.0" encoding="UTF-8" standalone="no"?>
<svg
   width="507"
   height="507"
   viewBox="0 0 507 507"
   fill="none"
   version="1.1"
   id="svg28"
   sodipodi:docname="icon.svg"
   inkscape:version="1.4 (e7c3feb1, 2024-10-09)"
   xmlns:inkscape="http://www.inkscape.org/namespaces/inkscape"
   xmlns:sodipodi="http://sodipodi.sourceforge.net/DTD/sodipodi-0.dtd"
   xmlns="http://www.w3.org/2000/svg"
   xmlns:svg="http://www.w3.org/2000/svg">
  <defs
     id="defs28" />
  <sodipodi:namedview
     id="namedview28"
     pagecolor="#ffffff"
     bordercolor="#000000"
     borderopacity="0.25"
     inkscape:showpageshadow="2"
     inkscape:pageopacity="0.0"
     inkscape:pagecheckerboard="0"
     inkscape:deskcolor="#d1d1d1"
     inkscape:zoom="1.9723866"
     inkscape:cx="253.2465"
     inkscape:cy="212.94"
     inkscape:window-width="2552"
     inkscape:window-height="1279"
     inkscape:window-x="0"
     inkscape:window-y="25"
     inkscape:window-maximized="0"
     inkscape:current-layer="svg28" />
  <path
     d="m 254.155,505.356 c 139.31021,0 252.243,-112.70581 252.243,-251.736 C 506.398,114.58981 393.46521,1.884 254.155,1.884 114.84479,1.884 1.912,114.58981 1.912,253.62 c 0,139.03019 112.93279,251.736 252.243,251.736 z"
     fill="#8800aa"
     id="path1"
     style="stroke-width:1.99992" />
  <path
     d="M 248.14921,199.67656 254.155,11.873522 260.16079,199.67656 m 0,107.88688 -6.00579,187.80304 -6.00579,-187.80304 M 200.10293,259.61371 11.921643,253.62 200.10293,247.62629 m 108.10414,0 188.18129,5.99371 -188.18129,5.99371"
     fill="#d42aff"
     id="path2"
     style="stroke-width:1.99992" />
  <path
     d="M 257.62635,199.45481 296.21951,15.545668 269.45574,201.53662 m -18.77209,106.24857 -38.59118,183.90914 26.76179,-185.99095 m -38.97354,-55.54774 -184.279528,-38.51362 186.365538,26.708 m 106.46255,18.73434 184.27952,38.51561 -186.36553,-26.70999"
     fill="#d42aff"
     id="path3"
     style="stroke-width:1.99992" />
  <path
     d="M 266.99937,200.87931 337.00281,26.452238 278.28625,204.981 M 241.31263,306.36069 171.30719,480.78776 230.02375,302.26099 M 201.30808,240.80344 26.529717,170.93871 205.41604,229.53925 m 101.58588,36.89931 174.77836,69.86473 -178.88632,-58.60055"
     fill="#d42aff"
     id="path4"
     style="stroke-width:1.99992" />
  <path
     d="M 275.98002,203.90814 375.27168,44.261554 286.38204,209.90185 m -54.05206,93.43201 -99.29166,159.64459 88.88964,-165.6383 M 204.341,231.83884 44.374911,132.74676 210.34679,221.45773 m 93.62221,53.94343 159.96609,99.09208 -165.97188,-88.71097"
     fill="#d42aff"
     id="path5"
     style="stroke-width:1.99992" />
  <path
     d="M 284.29804,208.44538 409.86101,68.432211 293.50091,216.14929 M 224.01196,298.79662 98.451,438.80979 214.8111,291.09071 M 208.88939,223.53754 68.594235,98.22896 216.60884,214.35518 M 299.4226,283.70246 439.71776,409.01304 291.70117,292.88682"
     fill="#d42aff"
     id="path6"
     style="stroke-width:1.99992" />
  <path
     d="M 291.70117,214.35518 439.71776,98.22896 299.4226,223.53754 M 216.60884,292.88682 68.594235,409.01304 208.88939,283.70246 M 214.8111,216.14929 98.451,68.432211 224.01196,208.44538 m 69.48895,82.64533 116.3601,147.71908 -125.56297,-140.01317"
     fill="#d42aff"
     id="path7"
     style="stroke-width:1.99992" />
  <path
     d="M 297.96321,221.45773 463.93509,132.74676 303.969,231.83884 M 210.34881,285.78227 44.374911,374.49324 204.34302,275.40116 M 221.92796,209.90185 133.03832,44.261554 232.32998,203.90814 m 54.05206,93.43201 88.88964,165.6383 -99.29166,-159.64459"
     fill="#d42aff"
     id="path8"
     style="stroke-width:1.99992" />
  <path
     d="M 302.89396,229.53925 481.78028,170.93871 307.00192,240.80344 M 205.41806,277.70274 26.529717,336.30329 201.3101,266.43856 M 230.02576,204.981 171.30719,26.452238 241.31263,200.87931 m 36.97362,101.38168 58.71857,178.52677 -70.00545,-174.42707"
     fill="#d42aff"
     id="path9"
     style="stroke-width:1.99992" />
  <path
     d="m 306.34327,238.35002 186.36553,-26.708 -184.27952,38.51362 M 201.96872,268.88998 15.603185,295.59997 199.88272,257.08436 M 238.85426,201.53662 212.09247,15.545668 250.68365,199.45481 m 18.77209,106.24857 26.76377,185.99095 -38.59316,-183.90914"
     fill="#d42aff"
     id="path10"
     style="stroke-width:1.99992" />
  <path
     d="M 314.22118,245.72998 496.69109,203.90814 316.30719,242.97176 M 195.91109,261.52624 13.441181,303.34808 193.82109,264.28446 M 242.92482,198.72512 204.33364,14.81621 256.85091,200.8783 m 14.78806,105.20838 38.59118,183.90914 -26.76179,-185.99095"
     fill="#d42aff"
     id="path11"
     style="stroke-width:1.99992" />
  <path
     d="M 322.09909,253.10994 501.94989,233.22536 324.18509,250.35172 M 189.85345,254.1625 10.002654,274.04708 187.76745,257.02122 M 247.4986,197.01249 197.09059,15.91006 263.5914,200.06829 m 10.01487,106.17906 49.40801,186.36823 -38.59219,-183.90914"
     fill="#d42aff"
     id="path12"
     style="stroke-width:1.99992" />
  <path
     d="M 329.97698,260.4899 506.398,262.54258 332.06298,257.73168 M 183.79581,246.79876 7.374789,244.74608 181.70981,249.55698 M 252.06238,195.29986 189.84753,18.129862 270.33219,199.25828 m 5.24168,106.14975 60.22484,187.52844 -50.42201,-184.86905"
     fill="#d42aff"
     id="path13"
     style="stroke-width:1.99992" />
  <path
     d="M 337.85489,267.86986 501.94989,292.8598 335.76889,265.11162 M 177.73817,239.43499 10.002654,214.44506 175.65217,241.52388 M 256.62616,193.58723 182.60447,21.477821 277.073,199.56778 m 0.46849,104.07886 70.04066,178.68823 -60.22484,-187.52844"
     fill="#d42aff"
     id="path14"
     style="stroke-width:1.99992" />
  <path
     d="M 345.73279,275.24982 496.69109,322.17602 343.64679,273.03056 M 171.68053,232.07122 13.441181,185.14502 169.59453,234.29011 M 261.18994,191.8746 175.36141,26.94678 283.81381,199.87728 m -4.3047,100.00798 79.85749,169.84801 -70.04166,-178.68823"
     fill="#d42aff"
     id="path15"
     style="stroke-width:1.99992" />
  <path
     d="M 353.6107,282.62978 482.43349,351.49224 351.5247,280.9495 M 165.62289,224.70744 18.699969,155.844 163.53689,226.82766 M 265.75372,190.16197 168.11835,35.887739 290.55462,200.49628 m -9.07891,93.94709 87.67432,161.00779 -79.85848,-169.84801"
     fill="#d42aff"
     id="path16"
     style="stroke-width:1.99992" />
  <path
     d="M 361.4886,290.00974 463.93509,374.49324 359.4026,289.90844 M 159.56525,217.34367 37.19837,132.85917 157.47825,218.95688 M 270.3175,188.44934 160.87529,47.7997 297.29542,200.49628 m -13.85312,87.8862 95.49115,152.16757 -87.67531,-161.00779"
     fill="#d42aff"
     id="path17"
     style="stroke-width:1.99992" />
  <path
     d="M 369.36651,297.3897 439.71776,409.01304 367.28051,298.34925 M 153.50761,209.9799 61.415699,111.35656 151.42061,210.0861 M 274.88128,186.73671 153.63223,62.811661 304.03622,200.80578 m -18.62733,81.82531 103.30798,143.32736 -95.49214,-152.16757"
     fill="#d42aff"
     id="path18"
     style="stroke-width:1.99992" />
  <path
     d="M 377.24442,304.76966 409.86101,438.80979 375.15842,306.79006 M 147.44997,202.61612 91.272151,92.698038 145.36297,201.21532 M 279.44506,185.02408 146.38917,80.94462 310.77702,201.11528 m -23.40154,75.76442 111.12481,134.48714 -103.30897,-143.32736"
     fill="#d42aff"
     id="path19"
     style="stroke-width:1.99992" />
  <path
     d="M 385.12233,312.14962 375.27168,462.12642 383.03633,315.23087 M 141.39233,195.25235 125.49053,77.737943 139.30533,193.44454 M 284.00884,183.31145 139.14611,102.27558 317.51782,201.42478 m -28.17575,69.70353 118.94164,125.64693 -111.1258,-134.48714"
     fill="#d42aff"
     id="path20"
     style="stroke-width:1.99992" />
  <path
     d="M 291.70117,214.35518 439.71776,98.22896 299.4226,223.53754 M 216.60884,292.88682 68.594235,409.01304 208.88939,283.70246 M 214.8111,216.14929 98.451,68.432211 224.01196,208.44538 m 69.48895,82.64533 116.3601,147.71908 -125.56297,-140.01317"
     fill="#d42aff"
     id="path21"
     style="stroke-width:1.99992" />
  <path
     d="M 297.96321,221.45773 463.93509,132.74676 303.969,231.83884 M 210.34881,285.78227 44.374911,374.49324 204.34302,275.40116 M 221.92796,209.90185 133.03832,44.261554 232.32998,203.90814 m 54.05206,93.43201 88.88964,165.6383 -99.29166,-159.64459"
     fill="#d42aff"
     id="path22"
     style="stroke-width:1.99992" />
  <path
     d="M 302.89396,229.53925 481.78028,170.93871 307.00192,240.80344 M 205.41806,277.70274 26.529717,336.30329 201.3101,266.43856 M 230.02576,204.981 171.30719,26.452238 241.31263,200.87931 m 36.97362,101.38168 58.71857,178.52677 -70.00545,-174.42707"
     fill="#d42aff"
     id="path23"
     style="stroke-width:1.99992" />
  <path
     d="M 291.70117,214.35518 439.71776,98.22896 299.4226,223.53754 M 216.60884,292.88682 68.594235,409.01304 208.88939,283.70246 M 214.8111,216.14929 98.451,68.432211 224.01196,208.44538 m 69.48895,82.64533 116.3601,147.71908 -125.56297,-140.01317"
     fill="#d42aff"
     id="path24"
     style="stroke-width:1.99992" />
  <path
     d="M 297.96321,221.45773 463.93509,132.74676 303.969,231.83884 M 210.34881,285.78227 44.374911,374.49324 204.34302,275.40116 M 221.92796,209.90185 133.03832,44.261554 232.32998,203.90814 m 54.05206,93.43201 88.88964,165.6383 -99.29166,-159.64459"
     fill="#d42aff"
     id="path25"
     style="stroke-width:1.99992" />
  <path
     d="M 302.89396,229.53925 481.78028,170.93871 307.00192,240.80344 M 205.41806,277.70274 26.529717,336.30329 201.3101,266.43856 M 230.02576,204.981 171.30719,26.452238 241.31263,200.87931 m 36.97362,101.38168 58.71857,178.52677 -70.00545,-174.42707"
     fill="#d42aff"
     id="path26"
     style="stroke-width:1.99992" />
  <path
     d="m 306.34327,238.35002 186.36553,-26.708 -184.27952,38.51362 M 201.96872,268.88998 15.603185,295.59997 199.88272,257.08436 M 238.85426,201.53662 212.09247,15.545668 250.68365,199.45481 m 18.77209,106.24857 26.76377,185.99095 -38.59316,-183.90914"
     fill="#d42aff"
     id="path27"
     style="stroke-width:1.99992" />
  <path
     d="m 254.155,323.54666 c 38.69728,0 70.0675,-31.30716 70.0675,-69.92666 0,-38.6195 -31.37022,-69.92666 -70.0675,-69.92666 -38.69728,0 -70.0675,31.30716 -70.0675,69.92666 0,38.6195 31.37022,69.92666 70.0675,69.92666 z"
     fill="#000000"
     id="path28"
     style="stroke-width:1.99992" />
</svg>
